<mxfile host="app.diagrams.net" modified="2023-11-15T13:11:27.891Z" agent="Mozilla/5.0 (Windows NT 10.0; Win64; x64) AppleWebKit/537.36 (KHTML, like Gecko) Chrome/119.0.0.0 Safari/537.36" etag="QutTWuzEVbmCRZ3pTTLB" version="22.1.1" type="github">
  <diagram id="prtHgNgQTEPvFCAcTncT" name="Page-1">
    <mxGraphModel dx="698" dy="421" grid="1" gridSize="10" guides="1" tooltips="1" connect="1" arrows="1" fold="1" page="1" pageScale="1" pageWidth="827" pageHeight="1169" math="0" shadow="0">
      <root>
        <mxCell id="0" />
        <mxCell id="1" parent="0" />
        <mxCell id="h3xc0rW8kSccvoQkN_E7-300" value="" style="group" parent="1" vertex="1" connectable="0">
          <mxGeometry x="160" y="160" width="550" height="420" as="geometry" />
        </mxCell>
        <mxCell id="h3xc0rW8kSccvoQkN_E7-283" value="" style="shape=delay;whiteSpace=wrap;html=1;" parent="h3xc0rW8kSccvoQkN_E7-300" vertex="1">
          <mxGeometry x="20" y="370" width="100" height="40" as="geometry" />
        </mxCell>
        <mxCell id="h3xc0rW8kSccvoQkN_E7-231" value="数据包" style="verticalLabelPosition=middle;verticalAlign=middle;html=1;shape=mxgraph.basic.layered_rect;dx=10;outlineConnect=0;whiteSpace=wrap;horizontal=1;fontStyle=3;labelPosition=center;align=center;fontFamily=Times New Roman;fillColor=#f5f5f5;fontColor=#333333;strokeColor=#666666;container=0;" parent="h3xc0rW8kSccvoQkN_E7-300" vertex="1">
          <mxGeometry x="470" y="380" width="70" height="40" as="geometry" />
        </mxCell>
        <mxCell id="h3xc0rW8kSccvoQkN_E7-232" value="CPU控制平面" style="rounded=1;whiteSpace=wrap;html=1;fillColor=#b1ddf0;strokeColor=#10739e;container=0;fontFamily=Times New Roman;fontStyle=3" parent="h3xc0rW8kSccvoQkN_E7-300" vertex="1">
          <mxGeometry x="250" y="110" width="120" height="65" as="geometry" />
        </mxCell>
        <mxCell id="h3xc0rW8kSccvoQkN_E7-240" value="数据通路" style="endArrow=classic;html=1;rounded=0;fontFamily=Times New Roman;fontStyle=3" parent="h3xc0rW8kSccvoQkN_E7-300" edge="1">
          <mxGeometry width="50" height="50" relative="1" as="geometry">
            <mxPoint x="19.999999999999886" y="380" as="sourcePoint" />
            <mxPoint x="109.99999999999989" y="380" as="targetPoint" />
          </mxGeometry>
        </mxCell>
        <mxCell id="h3xc0rW8kSccvoQkN_E7-241" value="控制平面" style="endArrow=classic;html=1;rounded=0;dashed=1;fontFamily=Times New Roman;fontStyle=3" parent="h3xc0rW8kSccvoQkN_E7-300" edge="1">
          <mxGeometry width="50" height="50" relative="1" as="geometry">
            <mxPoint x="19.999999999999886" y="400" as="sourcePoint" />
            <mxPoint x="109.99999999999989" y="400" as="targetPoint" />
            <mxPoint as="offset" />
          </mxGeometry>
        </mxCell>
        <mxCell id="h3xc0rW8kSccvoQkN_E7-245" value="GPU&lt;br&gt;" style="rounded=1;whiteSpace=wrap;html=1;fillColor=#fad7ac;strokeColor=#b46504;verticalAlign=top;container=0;fontFamily=Times New Roman;fontStyle=3" parent="h3xc0rW8kSccvoQkN_E7-300" vertex="1">
          <mxGeometry x="10" y="220" width="120" height="120" as="geometry" />
        </mxCell>
        <mxCell id="rdnJFUe5R6Q1TPVYXvaJ-67" style="edgeStyle=orthogonalEdgeStyle;rounded=0;orthogonalLoop=1;jettySize=auto;html=1;exitX=0.5;exitY=1;exitDx=0;exitDy=0;" edge="1" parent="h3xc0rW8kSccvoQkN_E7-300" source="h3xc0rW8kSccvoQkN_E7-251">
          <mxGeometry relative="1" as="geometry">
            <mxPoint x="70" y="90.42857142857144" as="targetPoint" />
          </mxGeometry>
        </mxCell>
        <mxCell id="h3xc0rW8kSccvoQkN_E7-251" value="GPU" style="rounded=1;whiteSpace=wrap;html=1;fillColor=#fad9d5;strokeColor=#ae4132;verticalAlign=top;container=0;fontFamily=Times New Roman;fontStyle=3" parent="h3xc0rW8kSccvoQkN_E7-300" vertex="1">
          <mxGeometry x="10" width="120" height="120" as="geometry" />
        </mxCell>
        <mxCell id="h3xc0rW8kSccvoQkN_E7-259" value="特征提取" style="rounded=1;whiteSpace=wrap;html=1;arcSize=50;fillColor=#fff2cc;strokeColor=#d6b656;shadow=1;fillStyle=auto;container=0;fontFamily=Times New Roman;fontStyle=3" parent="h3xc0rW8kSccvoQkN_E7-300" vertex="1">
          <mxGeometry x="27.5" y="242.25" width="85" height="17.75" as="geometry" />
        </mxCell>
        <mxCell id="h3xc0rW8kSccvoQkN_E7-268" value="多模型并行" style="rounded=1;whiteSpace=wrap;html=1;arcSize=50;fillColor=#dae8fc;strokeColor=#6c8ebf;shadow=1;fillStyle=auto;container=0;fontFamily=Times New Roman;fontStyle=3" parent="h3xc0rW8kSccvoQkN_E7-300" vertex="1">
          <mxGeometry x="27.5" y="24.25" width="85" height="17.75" as="geometry" />
        </mxCell>
        <mxCell id="h3xc0rW8kSccvoQkN_E7-222" value="&lt;span style=&quot;background-color: rgb(213, 232, 212); font-size: 8px;&quot;&gt;Bluefield-2 DPU&lt;/span&gt;" style="rounded=1;whiteSpace=wrap;html=1;fontStyle=3;fontFamily=Times New Roman;labelBackgroundColor=default;labelBorderColor=none;verticalAlign=top;fillColor=#d5e8d4;strokeColor=#82b366;shadow=1;fontSize=8;container=0;" parent="h3xc0rW8kSccvoQkN_E7-300" vertex="1">
          <mxGeometry x="300" y="220" width="240" height="110" as="geometry" />
        </mxCell>
        <mxCell id="rdnJFUe5R6Q1TPVYXvaJ-62" style="edgeStyle=orthogonalEdgeStyle;rounded=0;orthogonalLoop=1;jettySize=auto;html=1;exitX=1;exitY=0.25;exitDx=0;exitDy=0;entryX=1;entryY=0.5;entryDx=0;entryDy=0;" edge="1" parent="h3xc0rW8kSccvoQkN_E7-300" source="h3xc0rW8kSccvoQkN_E7-223" target="rdnJFUe5R6Q1TPVYXvaJ-55">
          <mxGeometry relative="1" as="geometry" />
        </mxCell>
        <mxCell id="rdnJFUe5R6Q1TPVYXvaJ-87" style="edgeStyle=orthogonalEdgeStyle;rounded=0;orthogonalLoop=1;jettySize=auto;html=1;exitX=0.5;exitY=1;exitDx=0;exitDy=0;entryX=0.75;entryY=1;entryDx=0;entryDy=0;dashed=1;" edge="1" parent="h3xc0rW8kSccvoQkN_E7-300" source="h3xc0rW8kSccvoQkN_E7-223" target="h3xc0rW8kSccvoQkN_E7-232">
          <mxGeometry relative="1" as="geometry" />
        </mxCell>
        <mxCell id="h3xc0rW8kSccvoQkN_E7-223" value="&lt;font style=&quot;font-size: 8px;&quot;&gt;&lt;span style=&quot;font-size: 8px;&quot;&gt;&lt;span style=&quot;font-size: 8px;&quot;&gt;PCIE&lt;br style=&quot;font-size: 8px;&quot;&gt;&lt;/span&gt;&lt;/span&gt;&lt;/font&gt;" style="rounded=1;html=1;fillColor=#fff2cc;strokeColor=#d6b656;direction=west;fontStyle=3;verticalAlign=middle;horizontal=0;whiteSpace=wrap;fontSize=8;fontFamily=Times New Roman;container=0;" parent="h3xc0rW8kSccvoQkN_E7-300" vertex="1">
          <mxGeometry x="300.42" y="241.5" width="19.17" height="74.5" as="geometry" />
        </mxCell>
        <mxCell id="rdnJFUe5R6Q1TPVYXvaJ-98" style="edgeStyle=orthogonalEdgeStyle;rounded=0;orthogonalLoop=1;jettySize=auto;html=1;exitX=0.5;exitY=0;exitDx=0;exitDy=0;entryX=0;entryY=0.5;entryDx=0;entryDy=0;" edge="1" parent="h3xc0rW8kSccvoQkN_E7-300" source="h3xc0rW8kSccvoQkN_E7-224" target="h3xc0rW8kSccvoQkN_E7-223">
          <mxGeometry relative="1" as="geometry" />
        </mxCell>
        <mxCell id="h3xc0rW8kSccvoQkN_E7-224" value="&lt;font style=&quot;font-size: 8px;&quot;&gt;eSwitch&lt;br&gt;&lt;span style=&quot;font-size: 8px;&quot;&gt;&lt;span style=&quot;font-size: 8px;&quot;&gt;ASIC&lt;br style=&quot;font-size: 8px;&quot;&gt;&lt;/span&gt;&lt;/span&gt;&lt;/font&gt;" style="rounded=1;html=1;fillColor=#fff2cc;strokeColor=#d6b656;direction=north;fontStyle=3;verticalAlign=middle;horizontal=1;whiteSpace=wrap;fontSize=8;fontFamily=Times New Roman;container=0;" parent="h3xc0rW8kSccvoQkN_E7-300" vertex="1">
          <mxGeometry x="360" y="285.5" width="170" height="29" as="geometry" />
        </mxCell>
        <mxCell id="h3xc0rW8kSccvoQkN_E7-225" value="&lt;font style=&quot;font-size: 8px;&quot;&gt;&lt;span style=&quot;font-size: 8px;&quot;&gt;&lt;span style=&quot;font-size: 8px;&quot;&gt;Arm子系统&lt;br style=&quot;font-size: 8px;&quot;&gt;&lt;/span&gt;&lt;/span&gt;&lt;/font&gt;" style="rounded=1;html=1;fillColor=#fff2cc;strokeColor=#d6b656;direction=north;fontStyle=3;verticalAlign=middle;horizontal=1;whiteSpace=wrap;fontSize=8;fontFamily=Times New Roman;container=0;" parent="h3xc0rW8kSccvoQkN_E7-300" vertex="1">
          <mxGeometry x="447.5" y="239.66000000000003" width="82.5" height="30" as="geometry" />
        </mxCell>
        <mxCell id="h3xc0rW8kSccvoQkN_E7-226" value="&lt;font style=&quot;font-size: 8px;&quot;&gt;&lt;span style=&quot;font-size: 8px;&quot;&gt;&lt;span style=&quot;font-size: 8px;&quot;&gt;&lt;br style=&quot;font-size: 8px;&quot;&gt;&lt;/span&gt;&lt;/span&gt;&lt;/font&gt;" style="rounded=1;html=1;fillColor=#fff2cc;strokeColor=#d6b656;direction=north;fontStyle=3;verticalAlign=middle;horizontal=1;whiteSpace=wrap;fontSize=8;fontFamily=Times New Roman;container=0;arcSize=23;" parent="h3xc0rW8kSccvoQkN_E7-300" vertex="1">
          <mxGeometry x="360" y="241.5" width="68.05" height="19.17" as="geometry" />
        </mxCell>
        <mxCell id="h3xc0rW8kSccvoQkN_E7-227" value="&lt;font style=&quot;font-size: 8px;&quot;&gt;&lt;span style=&quot;font-size: 8px;&quot;&gt;&lt;span style=&quot;font-size: 8px;&quot;&gt;硬件加速器&lt;br style=&quot;font-size: 8px;&quot;&gt;&lt;/span&gt;&lt;/span&gt;&lt;/font&gt;" style="rounded=1;html=1;fillColor=#fff2cc;strokeColor=#d6b656;direction=north;fontStyle=3;verticalAlign=middle;horizontal=1;whiteSpace=wrap;fontSize=8;fontFamily=Times New Roman;container=0;" parent="h3xc0rW8kSccvoQkN_E7-300" vertex="1">
          <mxGeometry x="370" y="251.5" width="68.05" height="19.17" as="geometry" />
        </mxCell>
        <mxCell id="rdnJFUe5R6Q1TPVYXvaJ-51" value="SM&lt;span style=&quot;white-space: pre;&quot;&gt;&#x9;&lt;/span&gt;" style="rounded=1;whiteSpace=wrap;html=1;fillColor=#d5e8d4;strokeColor=#82b366;" vertex="1" parent="h3xc0rW8kSccvoQkN_E7-300">
          <mxGeometry x="30" y="266.88" width="20" height="50" as="geometry" />
        </mxCell>
        <mxCell id="rdnJFUe5R6Q1TPVYXvaJ-52" value="SM" style="rounded=1;whiteSpace=wrap;html=1;fillColor=#d5e8d4;strokeColor=#82b366;" vertex="1" parent="h3xc0rW8kSccvoQkN_E7-300">
          <mxGeometry x="50" y="266.88" width="20" height="50" as="geometry" />
        </mxCell>
        <mxCell id="rdnJFUe5R6Q1TPVYXvaJ-53" value="SM" style="rounded=1;whiteSpace=wrap;html=1;fillColor=#d5e8d4;strokeColor=#82b366;" vertex="1" parent="h3xc0rW8kSccvoQkN_E7-300">
          <mxGeometry x="70" y="266.87" width="20" height="50" as="geometry" />
        </mxCell>
        <mxCell id="rdnJFUe5R6Q1TPVYXvaJ-54" value="SM" style="rounded=1;whiteSpace=wrap;html=1;fillColor=#d5e8d4;strokeColor=#82b366;" vertex="1" parent="h3xc0rW8kSccvoQkN_E7-300">
          <mxGeometry x="90" y="266.88" width="20" height="50" as="geometry" />
        </mxCell>
        <mxCell id="rdnJFUe5R6Q1TPVYXvaJ-55" value="显存" style="rounded=1;whiteSpace=wrap;html=1;fillColor=#e1d5e7;strokeColor=#9673a6;" vertex="1" parent="h3xc0rW8kSccvoQkN_E7-300">
          <mxGeometry x="30" y="316.87" width="80" height="13.13" as="geometry" />
        </mxCell>
        <mxCell id="rdnJFUe5R6Q1TPVYXvaJ-74" value="模型1" style="rounded=1;whiteSpace=wrap;html=1;fillColor=#fff2cc;strokeColor=#d6b656;fontSize=10;" vertex="1" parent="h3xc0rW8kSccvoQkN_E7-300">
          <mxGeometry x="40" y="50" width="30" height="30" as="geometry" />
        </mxCell>
        <mxCell id="rdnJFUe5R6Q1TPVYXvaJ-75" value="模型2" style="rounded=1;whiteSpace=wrap;html=1;fillColor=#fff2cc;strokeColor=#d6b656;fontSize=10;" vertex="1" parent="h3xc0rW8kSccvoQkN_E7-300">
          <mxGeometry x="70" y="50" width="30" height="30" as="geometry" />
        </mxCell>
        <mxCell id="rdnJFUe5R6Q1TPVYXvaJ-76" value="模型3" style="rounded=1;whiteSpace=wrap;html=1;fillColor=#fff2cc;strokeColor=#d6b656;fontSize=10;" vertex="1" parent="h3xc0rW8kSccvoQkN_E7-300">
          <mxGeometry x="40" y="80" width="30" height="30" as="geometry" />
        </mxCell>
        <mxCell id="rdnJFUe5R6Q1TPVYXvaJ-77" value="模型4" style="rounded=1;whiteSpace=wrap;html=1;fillColor=#fff2cc;strokeColor=#d6b656;fontSize=10;" vertex="1" parent="h3xc0rW8kSccvoQkN_E7-300">
          <mxGeometry x="70" y="80" width="30" height="30" as="geometry" />
        </mxCell>
        <mxCell id="rdnJFUe5R6Q1TPVYXvaJ-86" style="edgeStyle=orthogonalEdgeStyle;rounded=0;orthogonalLoop=1;jettySize=auto;html=1;entryX=0.062;entryY=0.855;entryDx=0;entryDy=0;entryPerimeter=0;" edge="1" parent="h3xc0rW8kSccvoQkN_E7-300" source="h3xc0rW8kSccvoQkN_E7-231" target="h3xc0rW8kSccvoQkN_E7-224">
          <mxGeometry relative="1" as="geometry" />
        </mxCell>
        <mxCell id="rdnJFUe5R6Q1TPVYXvaJ-93" style="rounded=0;orthogonalLoop=1;jettySize=auto;html=1;exitX=0;exitY=0.5;exitDx=0;exitDy=0;entryX=0.985;entryY=0.758;entryDx=0;entryDy=0;entryPerimeter=0;" edge="1" parent="h3xc0rW8kSccvoQkN_E7-300" source="h3xc0rW8kSccvoQkN_E7-225" target="h3xc0rW8kSccvoQkN_E7-224">
          <mxGeometry relative="1" as="geometry" />
        </mxCell>
        <mxCell id="rdnJFUe5R6Q1TPVYXvaJ-95" style="rounded=0;orthogonalLoop=1;jettySize=auto;html=1;exitX=0.985;exitY=0.877;exitDx=0;exitDy=0;entryX=0;entryY=0.75;entryDx=0;entryDy=0;exitPerimeter=0;" edge="1" parent="h3xc0rW8kSccvoQkN_E7-300" source="h3xc0rW8kSccvoQkN_E7-224" target="h3xc0rW8kSccvoQkN_E7-225">
          <mxGeometry relative="1" as="geometry">
            <mxPoint x="499" y="280" as="sourcePoint" />
            <mxPoint x="499" y="296" as="targetPoint" />
          </mxGeometry>
        </mxCell>
        <mxCell id="rdnJFUe5R6Q1TPVYXvaJ-114" value="" style="group" vertex="1" connectable="0" parent="1">
          <mxGeometry x="200" y="550" width="550" height="410" as="geometry" />
        </mxCell>
        <mxCell id="rdnJFUe5R6Q1TPVYXvaJ-143" value="frequence" style="rounded=1;whiteSpace=wrap;html=1;verticalAlign=bottom;labelPosition=center;verticalLabelPosition=top;align=center;dashed=1;container=0;fontFamily=Times New Roman;fontStyle=3" vertex="1" parent="rdnJFUe5R6Q1TPVYXvaJ-114">
          <mxGeometry x="150" y="80" width="120" height="60" as="geometry" />
        </mxCell>
        <mxCell id="rdnJFUe5R6Q1TPVYXvaJ-144" value="&lt;span&gt;&lt;span&gt;&lt;font&gt;batch&lt;/font&gt;&lt;/span&gt;&lt;/span&gt;" style="rounded=1;whiteSpace=wrap;html=1;gradientColor=none;dashed=1;dashPattern=8 8;labelPosition=center;verticalLabelPosition=top;align=center;verticalAlign=bottom;container=0;fontFamily=Times New Roman;fontStyle=3" vertex="1" parent="rdnJFUe5R6Q1TPVYXvaJ-114">
          <mxGeometry x="321.26" y="81.25" width="88.74" height="58.75" as="geometry" />
        </mxCell>
        <mxCell id="rdnJFUe5R6Q1TPVYXvaJ-145" value="" style="shape=partialRectangle;whiteSpace=wrap;html=1;left=0;right=0;fillColor=none;container=0;fontFamily=Times New Roman;fontStyle=3" vertex="1" parent="rdnJFUe5R6Q1TPVYXvaJ-114">
          <mxGeometry x="160" y="90" width="240" height="40" as="geometry" />
        </mxCell>
        <mxCell id="rdnJFUe5R6Q1TPVYXvaJ-146" value="" style="rounded=1;whiteSpace=wrap;html=1;fillColor=#fad9d5;strokeColor=#ae4132;container=0;fontFamily=Times New Roman;fontStyle=3" vertex="1" parent="rdnJFUe5R6Q1TPVYXvaJ-114">
          <mxGeometry x="329.99631578947367" y="96.875" width="28.42105263157895" height="26.25" as="geometry" />
        </mxCell>
        <mxCell id="rdnJFUe5R6Q1TPVYXvaJ-148" value="" style="rounded=1;whiteSpace=wrap;html=1;fillColor=#ffe6cc;strokeColor=#d79b00;container=0;fontFamily=Times New Roman;fontStyle=3" vertex="1" parent="rdnJFUe5R6Q1TPVYXvaJ-114">
          <mxGeometry x="160" y="97.505" width="28.42105263157895" height="26.25" as="geometry" />
        </mxCell>
        <mxCell id="rdnJFUe5R6Q1TPVYXvaJ-149" value="" style="rounded=1;whiteSpace=wrap;html=1;fillColor=#ffe6cc;strokeColor=#d79b00;container=0;fontFamily=Times New Roman;fontStyle=3" vertex="1" parent="rdnJFUe5R6Q1TPVYXvaJ-114">
          <mxGeometry x="199.00157894736842" y="97.505" width="28.42105263157895" height="26.25" as="geometry" />
        </mxCell>
        <mxCell id="rdnJFUe5R6Q1TPVYXvaJ-150" value="" style="rounded=1;whiteSpace=wrap;html=1;fillColor=#ffe6cc;strokeColor=#d79b00;container=0;fontFamily=Times New Roman;fontStyle=3" vertex="1" parent="rdnJFUe5R6Q1TPVYXvaJ-114">
          <mxGeometry x="235.26315789473682" y="97.505" width="28.42105263157895" height="26.25" as="geometry" />
        </mxCell>
        <mxCell id="rdnJFUe5R6Q1TPVYXvaJ-163" value="" style="rounded=1;whiteSpace=wrap;html=1;fillColor=#fad9d5;strokeColor=#ae4132;container=0;fontFamily=Times New Roman;fontStyle=3" vertex="1" parent="rdnJFUe5R6Q1TPVYXvaJ-114">
          <mxGeometry x="371.5763157894737" y="96.875" width="28.42105263157895" height="26.25" as="geometry" />
        </mxCell>
      </root>
    </mxGraphModel>
  </diagram>
</mxfile>
